<svg class="rich-terminal" viewBox="0 0 1238 830.8" xmlns="http://www.w3.org/2000/svg">
    <!-- Generated with Rich https://www.textualize.io -->
    <style>

    @font-face {
        font-family: "Fira Code";
        src: local("FiraCode-Regular"),
                url("https://cdnjs.cloudflare.com/ajax/libs/firacode/6.2.0/woff2/FiraCode-Regular.woff2") format("woff2"),
                url("https://cdnjs.cloudflare.com/ajax/libs/firacode/6.2.0/woff/FiraCode-Regular.woff") format("woff");
        font-style: normal;
        font-weight: 400;
    }
    @font-face {
        font-family: "Fira Code";
        src: local("FiraCode-Bold"),
                url("https://cdnjs.cloudflare.com/ajax/libs/firacode/6.2.0/woff2/FiraCode-Bold.woff2") format("woff2"),
                url("https://cdnjs.cloudflare.com/ajax/libs/firacode/6.2.0/woff/FiraCode-Bold.woff") format("woff");
        font-style: bold;
        font-weight: 700;
    }

    .terminal-1047007964-matrix {
        font-family: Fira Code, monospace;
        font-size: 20px;
        line-height: 24.4px;
        font-variant-east-asian: full-width;
    }

    .terminal-1047007964-title {
        font-size: 18px;
        font-weight: bold;
        font-family: arial;
    }

    .terminal-1047007964-r1 { fill: #c5c8c6 }
.terminal-1047007964-r2 { fill: #e0e0e0 }
.terminal-1047007964-r3 { fill: #a0a3a6 }
.terminal-1047007964-r4 { fill: #c5c6c7 }
.terminal-1047007964-r5 { fill: #fea62b }
.terminal-1047007964-r6 { fill: #a0a0a0 }
.terminal-1047007964-r7 { fill: #ffa62b;font-weight: bold }
.terminal-1047007964-r8 { fill: #495259 }
    </style>

    <defs>
    <clipPath id="terminal-1047007964-clip-terminal">
      <rect x="0" y="0" width="1219.0" height="779.8" />
    </clipPath>
    <clipPath id="terminal-1047007964-line-0">
    <rect x="0" y="1.5" width="1220" height="24.65"/>
            </clipPath>
<clipPath id="terminal-1047007964-line-1">
    <rect x="0" y="25.9" width="1220" height="24.65"/>
            </clipPath>
<clipPath id="terminal-1047007964-line-2">
    <rect x="0" y="50.3" width="1220" height="24.65"/>
            </clipPath>
<clipPath id="terminal-1047007964-line-3">
    <rect x="0" y="74.7" width="1220" height="24.65"/>
            </clipPath>
<clipPath id="terminal-1047007964-line-4">
    <rect x="0" y="99.1" width="1220" height="24.65"/>
            </clipPath>
<clipPath id="terminal-1047007964-line-5">
    <rect x="0" y="123.5" width="1220" height="24.65"/>
            </clipPath>
<clipPath id="terminal-1047007964-line-6">
    <rect x="0" y="147.9" width="1220" height="24.65"/>
            </clipPath>
<clipPath id="terminal-1047007964-line-7">
    <rect x="0" y="172.3" width="1220" height="24.65"/>
            </clipPath>
<clipPath id="terminal-1047007964-line-8">
    <rect x="0" y="196.7" width="1220" height="24.65"/>
            </clipPath>
<clipPath id="terminal-1047007964-line-9">
    <rect x="0" y="221.1" width="1220" height="24.65"/>
            </clipPath>
<clipPath id="terminal-1047007964-line-10">
    <rect x="0" y="245.5" width="1220" height="24.65"/>
            </clipPath>
<clipPath id="terminal-1047007964-line-11">
    <rect x="0" y="269.9" width="1220" height="24.65"/>
            </clipPath>
<clipPath id="terminal-1047007964-line-12">
    <rect x="0" y="294.3" width="1220" height="24.65"/>
            </clipPath>
<clipPath id="terminal-1047007964-line-13">
    <rect x="0" y="318.7" width="1220" height="24.65"/>
            </clipPath>
<clipPath id="terminal-1047007964-line-14">
    <rect x="0" y="343.1" width="1220" height="24.65"/>
            </clipPath>
<clipPath id="terminal-1047007964-line-15">
    <rect x="0" y="367.5" width="1220" height="24.65"/>
            </clipPath>
<clipPath id="terminal-1047007964-line-16">
    <rect x="0" y="391.9" width="1220" height="24.65"/>
            </clipPath>
<clipPath id="terminal-1047007964-line-17">
    <rect x="0" y="416.3" width="1220" height="24.65"/>
            </clipPath>
<clipPath id="terminal-1047007964-line-18">
    <rect x="0" y="440.7" width="1220" height="24.65"/>
            </clipPath>
<clipPath id="terminal-1047007964-line-19">
    <rect x="0" y="465.1" width="1220" height="24.65"/>
            </clipPath>
<clipPath id="terminal-1047007964-line-20">
    <rect x="0" y="489.5" width="1220" height="24.65"/>
            </clipPath>
<clipPath id="terminal-1047007964-line-21">
    <rect x="0" y="513.9" width="1220" height="24.65"/>
            </clipPath>
<clipPath id="terminal-1047007964-line-22">
    <rect x="0" y="538.3" width="1220" height="24.65"/>
            </clipPath>
<clipPath id="terminal-1047007964-line-23">
    <rect x="0" y="562.7" width="1220" height="24.65"/>
            </clipPath>
<clipPath id="terminal-1047007964-line-24">
    <rect x="0" y="587.1" width="1220" height="24.65"/>
            </clipPath>
<clipPath id="terminal-1047007964-line-25">
    <rect x="0" y="611.5" width="1220" height="24.65"/>
            </clipPath>
<clipPath id="terminal-1047007964-line-26">
    <rect x="0" y="635.9" width="1220" height="24.65"/>
            </clipPath>
<clipPath id="terminal-1047007964-line-27">
    <rect x="0" y="660.3" width="1220" height="24.65"/>
            </clipPath>
<clipPath id="terminal-1047007964-line-28">
    <rect x="0" y="684.7" width="1220" height="24.65"/>
            </clipPath>
<clipPath id="terminal-1047007964-line-29">
    <rect x="0" y="709.1" width="1220" height="24.65"/>
            </clipPath>
<clipPath id="terminal-1047007964-line-30">
    <rect x="0" y="733.5" width="1220" height="24.65"/>
            </clipPath>
    </defs>

    <rect fill="#292929" stroke="rgba(255,255,255,0.35)" stroke-width="1" x="1" y="1" width="1236" height="828.8" rx="8"/><text class="terminal-1047007964-title" fill="#c5c8c6" text-anchor="middle" x="618" y="27">MACSSD_Performance&#160;Watcher</text>
            <g transform="translate(26,22)">
            <circle cx="0" cy="0" r="7" fill="#ff5f57"/>
            <circle cx="22" cy="0" r="7" fill="#febc2e"/>
            <circle cx="44" cy="0" r="7" fill="#28c840"/>
            </g>
        
    <g transform="translate(9, 41)" clip-path="url(#terminal-1047007964-clip-terminal)">
    <rect fill="#242f38" x="0" y="1.5" width="12.2" height="24.65" shape-rendering="crispEdges"/><rect fill="#242f38" x="12.2" y="1.5" width="12.2" height="24.65" shape-rendering="crispEdges"/><rect fill="#242f38" x="24.4" y="1.5" width="61" height="24.65" shape-rendering="crispEdges"/><rect fill="#242f38" x="85.4" y="1.5" width="12.2" height="24.65" shape-rendering="crispEdges"/><rect fill="#242f38" x="97.6" y="1.5" width="256.2" height="24.65" shape-rendering="crispEdges"/><rect fill="#242f38" x="353.8" y="1.5" width="317.2" height="24.65" shape-rendering="crispEdges"/><rect fill="#242f38" x="671" y="1.5" width="36.6" height="24.65" shape-rendering="crispEdges"/><rect fill="#242f38" x="707.6" y="1.5" width="134.2" height="24.65" shape-rendering="crispEdges"/><rect fill="#242f38" x="841.8" y="1.5" width="256.2" height="24.65" shape-rendering="crispEdges"/><rect fill="#2c363f" x="1098" y="1.5" width="12.2" height="24.65" shape-rendering="crispEdges"/><rect fill="#2c363f" x="1110.2" y="1.5" width="97.6" height="24.65" shape-rendering="crispEdges"/><rect fill="#2c363f" x="1207.8" y="1.5" width="12.2" height="24.65" shape-rendering="crispEdges"/><rect fill="#121212" x="0" y="25.9" width="12.2" height="24.65" shape-rendering="crispEdges"/><rect fill="#121212" x="12.2" y="25.9" width="12.2" height="24.65" shape-rendering="crispEdges"/><rect fill="#121212" x="24.4" y="25.9" width="12.2" height="24.65" shape-rendering="crispEdges"/><rect fill="#121212" x="36.6" y="25.9" width="97.6" height="24.65" shape-rendering="crispEdges"/><rect fill="#121212" x="134.2" y="25.9" width="451.4" height="24.65" shape-rendering="crispEdges"/><rect fill="#121212" x="585.6" y="25.9" width="12.2" height="24.65" shape-rendering="crispEdges"/><rect fill="#121212" x="597.8" y="25.9" width="12.2" height="24.65" shape-rendering="crispEdges"/><rect fill="#121212" x="610" y="25.9" width="12.2" height="24.65" shape-rendering="crispEdges"/><rect fill="#121212" x="622.2" y="25.9" width="12.2" height="24.65" shape-rendering="crispEdges"/><rect fill="#121212" x="634.4" y="25.9" width="109.8" height="24.65" shape-rendering="crispEdges"/><rect fill="#121212" x="744.2" y="25.9" width="451.4" height="24.65" shape-rendering="crispEdges"/><rect fill="#121212" x="1195.6" y="25.9" width="12.2" height="24.65" shape-rendering="crispEdges"/><rect fill="#121212" x="1207.8" y="25.9" width="12.2" height="24.65" shape-rendering="crispEdges"/><rect fill="#121212" x="0" y="50.3" width="12.2" height="24.65" shape-rendering="crispEdges"/><rect fill="#121212" x="12.2" y="50.3" width="12.2" height="24.65" shape-rendering="crispEdges"/><rect fill="#121212" x="24.4" y="50.3" width="12.2" height="24.65" shape-rendering="crispEdges"/><rect fill="#121212" x="36.6" y="50.3" width="207.4" height="24.65" shape-rendering="crispEdges"/><rect fill="#121212" x="244" y="50.3" width="329.4" height="24.65" shape-rendering="crispEdges"/><rect fill="#121212" x="573.4" y="50.3" width="12.2" height="24.65" shape-rendering="crispEdges"/><rect fill="#121212" x="585.6" y="50.3" width="12.2" height="24.65" shape-rendering="crispEdges"/><rect fill="#121212" x="597.8" y="50.3" width="12.2" height="24.65" shape-rendering="crispEdges"/><rect fill="#121212" x="610" y="50.3" width="12.2" height="24.65" shape-rendering="crispEdges"/><rect fill="#121212" x="622.2" y="50.3" width="12.2" height="24.65" shape-rendering="crispEdges"/><rect fill="#121212" x="634.4" y="50.3" width="207.4" height="24.65" shape-rendering="crispEdges"/><rect fill="#121212" x="841.8" y="50.3" width="341.6" height="24.65" shape-rendering="crispEdges"/><rect fill="#121212" x="1183.4" y="50.3" width="12.2" height="24.65" shape-rendering="crispEdges"/><rect fill="#121212" x="1195.6" y="50.3" width="12.2" height="24.65" shape-rendering="crispEdges"/><rect fill="#121212" x="1207.8" y="50.3" width="12.2" height="24.65" shape-rendering="crispEdges"/><rect fill="#121212" x="0" y="74.7" width="12.2" height="24.65" shape-rendering="crispEdges"/><rect fill="#121212" x="12.2" y="74.7" width="12.2" height="24.65" shape-rendering="crispEdges"/><rect fill="#121212" x="24.4" y="74.7" width="561.2" height="24.65" shape-rendering="crispEdges"/><rect fill="#121212" x="585.6" y="74.7" width="12.2" height="24.65" shape-rendering="crispEdges"/><rect fill="#121212" x="597.8" y="74.7" width="12.2" height="24.65" shape-rendering="crispEdges"/><rect fill="#121212" x="610" y="74.7" width="12.2" height="24.65" shape-rendering="crispEdges"/><rect fill="#121212" x="622.2" y="74.7" width="573.4" height="24.65" shape-rendering="crispEdges"/><rect fill="#121212" x="1195.6" y="74.7" width="12.2" height="24.65" shape-rendering="crispEdges"/><rect fill="#121212" x="1207.8" y="74.7" width="12.2" height="24.65" shape-rendering="crispEdges"/><rect fill="#121212" x="0" y="99.1" width="1220" height="24.65" shape-rendering="crispEdges"/><rect fill="#121212" x="0" y="123.5" width="1220" height="24.65" shape-rendering="crispEdges"/><rect fill="#121212" x="0" y="147.9" width="1220" height="24.65" shape-rendering="crispEdges"/><rect fill="#121212" x="0" y="172.3" width="1220" height="24.65" shape-rendering="crispEdges"/><rect fill="#121212" x="0" y="196.7" width="1220" height="24.65" shape-rendering="crispEdges"/><rect fill="#121212" x="0" y="221.1" width="1220" height="24.65" shape-rendering="crispEdges"/><rect fill="#121212" x="0" y="245.5" width="12.2" height="24.65" shape-rendering="crispEdges"/><rect fill="#121212" x="12.2" y="245.5" width="12.2" height="24.65" shape-rendering="crispEdges"/><rect fill="#121212" x="24.4" y="245.5" width="12.2" height="24.65" shape-rendering="crispEdges"/><rect fill="#121212" x="36.6" y="245.5" width="183" height="24.65" shape-rendering="crispEdges"/><rect fill="#121212" x="219.6" y="245.5" width="976" height="24.65" shape-rendering="crispEdges"/><rect fill="#121212" x="1195.6" y="245.5" width="12.2" height="24.65" shape-rendering="crispEdges"/><rect fill="#121212" x="1207.8" y="245.5" width="12.2" height="24.65" shape-rendering="crispEdges"/><rect fill="#121212" x="0" y="269.9" width="12.2" height="24.65" shape-rendering="crispEdges"/><rect fill="#121212" x="12.2" y="269.9" width="12.2" height="24.65" shape-rendering="crispEdges"/><rect fill="#121212" x="24.4" y="269.9" width="12.2" height="24.65" shape-rendering="crispEdges"/><rect fill="#121212" x="36.6" y="269.9" width="207.4" height="24.65" shape-rendering="crispEdges"/><rect fill="#121212" x="244" y="269.9" width="939.4" height="24.65" shape-rendering="crispEdges"/><rect fill="#121212" x="1183.4" y="269.9" width="12.2" height="24.65" shape-rendering="crispEdges"/><rect fill="#121212" x="1195.6" y="269.9" width="12.2" height="24.65" shape-rendering="crispEdges"/><rect fill="#121212" x="1207.8" y="269.9" width="12.2" height="24.65" shape-rendering="crispEdges"/><rect fill="#121212" x="0" y="294.3" width="12.2" height="24.65" shape-rendering="crispEdges"/><rect fill="#121212" x="12.2" y="294.3" width="12.2" height="24.65" shape-rendering="crispEdges"/><rect fill="#121212" x="24.4" y="294.3" width="12.2" height="24.65" shape-rendering="crispEdges"/><rect fill="#121212" x="36.6" y="294.3" width="1146.8" height="24.65" shape-rendering="crispEdges"/><rect fill="#121212" x="1183.4" y="294.3" width="12.2" height="24.65" shape-rendering="crispEdges"/><rect fill="#121212" x="1195.6" y="294.3" width="12.2" height="24.65" shape-rendering="crispEdges"/><rect fill="#121212" x="1207.8" y="294.3" width="12.2" height="24.65" shape-rendering="crispEdges"/><rect fill="#121212" x="0" y="318.7" width="12.2" height="24.65" shape-rendering="crispEdges"/><rect fill="#121212" x="12.2" y="318.7" width="12.2" height="24.65" shape-rendering="crispEdges"/><rect fill="#121212" x="24.4" y="318.7" width="12.2" height="24.65" shape-rendering="crispEdges"/><rect fill="#121212" x="36.6" y="318.7" width="1146.8" height="24.65" shape-rendering="crispEdges"/><rect fill="#121212" x="1183.4" y="318.7" width="12.2" height="24.65" shape-rendering="crispEdges"/><rect fill="#121212" x="1195.6" y="318.7" width="12.2" height="24.65" shape-rendering="crispEdges"/><rect fill="#121212" x="1207.8" y="318.7" width="12.2" height="24.65" shape-rendering="crispEdges"/><rect fill="#121212" x="0" y="343.1" width="12.2" height="24.65" shape-rendering="crispEdges"/><rect fill="#121212" x="12.2" y="343.1" width="12.2" height="24.65" shape-rendering="crispEdges"/><rect fill="#121212" x="24.4" y="343.1" width="12.2" height="24.65" shape-rendering="crispEdges"/><rect fill="#121212" x="36.6" y="343.1" width="1146.8" height="24.65" shape-rendering="crispEdges"/><rect fill="#121212" x="1183.4" y="343.1" width="12.2" height="24.65" shape-rendering="crispEdges"/><rect fill="#121212" x="1195.6" y="343.1" width="12.2" height="24.65" shape-rendering="crispEdges"/><rect fill="#121212" x="1207.8" y="343.1" width="12.2" height="24.65" shape-rendering="crispEdges"/><rect fill="#121212" x="0" y="367.5" width="12.2" height="24.65" shape-rendering="crispEdges"/><rect fill="#121212" x="12.2" y="367.5" width="12.2" height="24.65" shape-rendering="crispEdges"/><rect fill="#121212" x="24.4" y="367.5" width="1171.2" height="24.65" shape-rendering="crispEdges"/><rect fill="#121212" x="1195.6" y="367.5" width="12.2" height="24.65" shape-rendering="crispEdges"/><rect fill="#121212" x="1207.8" y="367.5" width="12.2" height="24.65" shape-rendering="crispEdges"/><rect fill="#121212" x="0" y="391.9" width="12.2" height="24.65" shape-rendering="crispEdges"/><rect fill="#121212" x="12.2" y="391.9" width="12.2" height="24.65" shape-rendering="crispEdges"/><rect fill="#121212" x="24.4" y="391.9" width="12.2" height="24.65" shape-rendering="crispEdges"/><rect fill="#121212" x="36.6" y="391.9" width="207.4" height="24.65" shape-rendering="crispEdges"/><rect fill="#121212" x="244" y="391.9" width="951.6" height="24.65" shape-rendering="crispEdges"/><rect fill="#121212" x="1195.6" y="391.9" width="12.2" height="24.65" shape-rendering="crispEdges"/><rect fill="#121212" x="1207.8" y="391.9" width="12.2" height="24.65" shape-rendering="crispEdges"/><rect fill="#121212" x="0" y="416.3" width="12.2" height="24.65" shape-rendering="crispEdges"/><rect fill="#121212" x="12.2" y="416.3" width="12.2" height="24.65" shape-rendering="crispEdges"/><rect fill="#121212" x="24.4" y="416.3" width="12.2" height="24.65" shape-rendering="crispEdges"/><rect fill="#121212" x="36.6" y="416.3" width="207.4" height="24.65" shape-rendering="crispEdges"/><rect fill="#121212" x="244" y="416.3" width="939.4" height="24.65" shape-rendering="crispEdges"/><rect fill="#121212" x="1183.4" y="416.3" width="12.2" height="24.65" shape-rendering="crispEdges"/><rect fill="#121212" x="1195.6" y="416.3" width="12.2" height="24.65" shape-rendering="crispEdges"/><rect fill="#121212" x="1207.8" y="416.3" width="12.2" height="24.65" shape-rendering="crispEdges"/><rect fill="#121212" x="0" y="440.7" width="12.2" height="24.65" shape-rendering="crispEdges"/><rect fill="#121212" x="12.2" y="440.7" width="12.2" height="24.65" shape-rendering="crispEdges"/><rect fill="#121212" x="24.4" y="440.7" width="12.2" height="24.65" shape-rendering="crispEdges"/><rect fill="#121212" x="36.6" y="440.7" width="1146.8" height="24.65" shape-rendering="crispEdges"/><rect fill="#121212" x="1183.4" y="440.7" width="12.2" height="24.65" shape-rendering="crispEdges"/><rect fill="#121212" x="1195.6" y="440.7" width="12.2" height="24.65" shape-rendering="crispEdges"/><rect fill="#121212" x="1207.8" y="440.7" width="12.2" height="24.65" shape-rendering="crispEdges"/><rect fill="#121212" x="0" y="465.1" width="12.2" height="24.65" shape-rendering="crispEdges"/><rect fill="#121212" x="12.2" y="465.1" width="12.2" height="24.65" shape-rendering="crispEdges"/><rect fill="#121212" x="24.4" y="465.1" width="12.2" height="24.65" shape-rendering="crispEdges"/><rect fill="#121212" x="36.6" y="465.1" width="1146.8" height="24.65" shape-rendering="crispEdges"/><rect fill="#121212" x="1183.4" y="465.1" width="12.2" height="24.65" shape-rendering="crispEdges"/><rect fill="#121212" x="1195.6" y="465.1" width="12.2" height="24.65" shape-rendering="crispEdges"/><rect fill="#121212" x="1207.8" y="465.1" width="12.2" height="24.65" shape-rendering="crispEdges"/><rect fill="#121212" x="0" y="489.5" width="12.2" height="24.65" shape-rendering="crispEdges"/><rect fill="#121212" x="12.2" y="489.5" width="12.2" height="24.65" shape-rendering="crispEdges"/><rect fill="#121212" x="24.4" y="489.5" width="12.2" height="24.65" shape-rendering="crispEdges"/><rect fill="#121212" x="36.6" y="489.5" width="1146.8" height="24.65" shape-rendering="crispEdges"/><rect fill="#121212" x="1183.4" y="489.5" width="12.2" height="24.65" shape-rendering="crispEdges"/><rect fill="#121212" x="1195.6" y="489.5" width="12.2" height="24.65" shape-rendering="crispEdges"/><rect fill="#121212" x="1207.8" y="489.5" width="12.2" height="24.65" shape-rendering="crispEdges"/><rect fill="#121212" x="0" y="513.9" width="12.2" height="24.65" shape-rendering="crispEdges"/><rect fill="#121212" x="12.2" y="513.9" width="12.2" height="24.65" shape-rendering="crispEdges"/><rect fill="#121212" x="24.4" y="513.9" width="12.2" height="24.65" shape-rendering="crispEdges"/><rect fill="#121212" x="36.6" y="513.9" width="1146.8" height="24.65" shape-rendering="crispEdges"/><rect fill="#121212" x="1183.4" y="513.9" width="12.2" height="24.65" shape-rendering="crispEdges"/><rect fill="#121212" x="1195.6" y="513.9" width="12.2" height="24.65" shape-rendering="crispEdges"/><rect fill="#121212" x="1207.8" y="513.9" width="12.2" height="24.65" shape-rendering="crispEdges"/><rect fill="#121212" x="0" y="538.3" width="12.2" height="24.65" shape-rendering="crispEdges"/><rect fill="#121212" x="12.2" y="538.3" width="12.2" height="24.65" shape-rendering="crispEdges"/><rect fill="#121212" x="24.4" y="538.3" width="1171.2" height="24.65" shape-rendering="crispEdges"/><rect fill="#121212" x="1195.6" y="538.3" width="12.2" height="24.65" shape-rendering="crispEdges"/><rect fill="#121212" x="1207.8" y="538.3" width="12.2" height="24.65" shape-rendering="crispEdges"/><rect fill="#121212" x="0" y="562.7" width="12.2" height="24.65" shape-rendering="crispEdges"/><rect fill="#121212" x="12.2" y="562.7" width="12.2" height="24.65" shape-rendering="crispEdges"/><rect fill="#121212" x="24.4" y="562.7" width="12.2" height="24.65" shape-rendering="crispEdges"/><rect fill="#121212" x="36.6" y="562.7" width="122" height="24.65" shape-rendering="crispEdges"/><rect fill="#121212" x="158.6" y="562.7" width="1037" height="24.65" shape-rendering="crispEdges"/><rect fill="#121212" x="1195.6" y="562.7" width="12.2" height="24.65" shape-rendering="crispEdges"/><rect fill="#121212" x="1207.8" y="562.7" width="12.2" height="24.65" shape-rendering="crispEdges"/><rect fill="#121212" x="0" y="587.1" width="12.2" height="24.65" shape-rendering="crispEdges"/><rect fill="#121212" x="12.2" y="587.1" width="12.2" height="24.65" shape-rendering="crispEdges"/><rect fill="#121212" x="24.4" y="587.1" width="12.2" height="24.65" shape-rendering="crispEdges"/><rect fill="#121212" x="36.6" y="587.1" width="207.4" height="24.65" shape-rendering="crispEdges"/><rect fill="#121212" x="244" y="587.1" width="939.4" height="24.65" shape-rendering="crispEdges"/><rect fill="#121212" x="1183.4" y="587.1" width="12.2" height="24.65" shape-rendering="crispEdges"/><rect fill="#121212" x="1195.6" y="587.1" width="12.2" height="24.65" shape-rendering="crispEdges"/><rect fill="#121212" x="1207.8" y="587.1" width="12.2" height="24.65" shape-rendering="crispEdges"/><rect fill="#121212" x="0" y="611.5" width="12.2" height="24.65" shape-rendering="crispEdges"/><rect fill="#121212" x="12.2" y="611.5" width="12.2" height="24.65" shape-rendering="crispEdges"/><rect fill="#121212" x="24.4" y="611.5" width="12.2" height="24.65" shape-rendering="crispEdges"/><rect fill="#121212" x="36.6" y="611.5" width="1146.8" height="24.65" shape-rendering="crispEdges"/><rect fill="#121212" x="1183.4" y="611.5" width="12.2" height="24.65" shape-rendering="crispEdges"/><rect fill="#121212" x="1195.6" y="611.5" width="12.2" height="24.65" shape-rendering="crispEdges"/><rect fill="#121212" x="1207.8" y="611.5" width="12.2" height="24.65" shape-rendering="crispEdges"/><rect fill="#121212" x="0" y="635.9" width="12.2" height="24.65" shape-rendering="crispEdges"/><rect fill="#121212" x="12.2" y="635.9" width="12.2" height="24.65" shape-rendering="crispEdges"/><rect fill="#121212" x="24.4" y="635.9" width="12.2" height="24.65" shape-rendering="crispEdges"/><rect fill="#121212" x="36.6" y="635.9" width="1146.8" height="24.65" shape-rendering="crispEdges"/><rect fill="#121212" x="1183.4" y="635.9" width="12.2" height="24.65" shape-rendering="crispEdges"/><rect fill="#121212" x="1195.6" y="635.9" width="12.2" height="24.65" shape-rendering="crispEdges"/><rect fill="#121212" x="1207.8" y="635.9" width="12.2" height="24.65" shape-rendering="crispEdges"/><rect fill="#121212" x="0" y="660.3" width="12.2" height="24.65" shape-rendering="crispEdges"/><rect fill="#121212" x="12.2" y="660.3" width="12.2" height="24.65" shape-rendering="crispEdges"/><rect fill="#121212" x="24.4" y="660.3" width="12.2" height="24.65" shape-rendering="crispEdges"/><rect fill="#121212" x="36.6" y="660.3" width="1146.8" height="24.65" shape-rendering="crispEdges"/><rect fill="#121212" x="1183.4" y="660.3" width="12.2" height="24.65" shape-rendering="crispEdges"/><rect fill="#121212" x="1195.6" y="660.3" width="12.2" height="24.65" shape-rendering="crispEdges"/><rect fill="#121212" x="1207.8" y="660.3" width="12.2" height="24.65" shape-rendering="crispEdges"/><rect fill="#121212" x="0" y="684.7" width="12.2" height="24.65" shape-rendering="crispEdges"/><rect fill="#121212" x="12.2" y="684.7" width="12.2" height="24.65" shape-rendering="crispEdges"/><rect fill="#121212" x="24.4" y="684.7" width="12.2" height="24.65" shape-rendering="crispEdges"/><rect fill="#121212" x="36.6" y="684.7" width="1146.8" height="24.65" shape-rendering="crispEdges"/><rect fill="#121212" x="1183.4" y="684.7" width="12.2" height="24.65" shape-rendering="crispEdges"/><rect fill="#121212" x="1195.6" y="684.7" width="12.2" height="24.65" shape-rendering="crispEdges"/><rect fill="#121212" x="1207.8" y="684.7" width="12.2" height="24.65" shape-rendering="crispEdges"/><rect fill="#121212" x="0" y="709.1" width="12.2" height="24.65" shape-rendering="crispEdges"/><rect fill="#121212" x="12.2" y="709.1" width="12.2" height="24.65" shape-rendering="crispEdges"/><rect fill="#121212" x="24.4" y="709.1" width="12.2" height="24.65" shape-rendering="crispEdges"/><rect fill="#121212" x="36.6" y="709.1" width="1146.8" height="24.65" shape-rendering="crispEdges"/><rect fill="#121212" x="1183.4" y="709.1" width="12.2" height="24.65" shape-rendering="crispEdges"/><rect fill="#121212" x="1195.6" y="709.1" width="12.2" height="24.65" shape-rendering="crispEdges"/><rect fill="#121212" x="1207.8" y="709.1" width="12.2" height="24.65" shape-rendering="crispEdges"/><rect fill="#121212" x="0" y="733.5" width="12.2" height="24.65" shape-rendering="crispEdges"/><rect fill="#121212" x="12.2" y="733.5" width="12.2" height="24.65" shape-rendering="crispEdges"/><rect fill="#121212" x="24.4" y="733.5" width="1171.2" height="24.65" shape-rendering="crispEdges"/><rect fill="#121212" x="1195.6" y="733.5" width="12.2" height="24.65" shape-rendering="crispEdges"/><rect fill="#121212" x="1207.8" y="733.5" width="12.2" height="24.65" shape-rendering="crispEdges"/><rect fill="#242f38" x="0" y="757.9" width="36.6" height="24.65" shape-rendering="crispEdges"/><rect fill="#242f38" x="36.6" y="757.9" width="61" height="24.65" shape-rendering="crispEdges"/><rect fill="#242f38" x="97.6" y="757.9" width="976" height="24.65" shape-rendering="crispEdges"/><rect fill="#242f38" x="1073.6" y="757.9" width="12.2" height="24.65" shape-rendering="crispEdges"/><rect fill="#242f38" x="1085.8" y="757.9" width="24.4" height="24.65" shape-rendering="crispEdges"/><rect fill="#242f38" x="1110.2" y="757.9" width="97.6" height="24.65" shape-rendering="crispEdges"/><rect fill="#242f38" x="1207.8" y="757.9" width="12.2" height="24.65" shape-rendering="crispEdges"/>
    <g class="terminal-1047007964-matrix">
    <text class="terminal-1047007964-r2" x="12.2" y="20" textLength="12.2" clip-path="url(#terminal-1047007964-line-0)">⭘</text><text class="terminal-1047007964-r2" x="353.8" y="20" textLength="317.2" clip-path="url(#terminal-1047007964-line-0)">MACSSD_Performance&#160;Watcher</text><text class="terminal-1047007964-r3" x="671" y="20" textLength="36.6" clip-path="url(#terminal-1047007964-line-0)">&#160;—&#160;</text><text class="terminal-1047007964-r3" x="707.6" y="20" textLength="134.2" clip-path="url(#terminal-1047007964-line-0)">Mac&#160;mini&#160;M4</text><text class="terminal-1047007964-r4" x="1110.2" y="20" textLength="97.6" clip-path="url(#terminal-1047007964-line-0)">15:53:51</text><text class="terminal-1047007964-r1" x="1220" y="20" textLength="12.2" clip-path="url(#terminal-1047007964-line-0)">
</text><text class="terminal-1047007964-r5" x="12.2" y="44.4" textLength="12.2" clip-path="url(#terminal-1047007964-line-1)">╭</text><text class="terminal-1047007964-r5" x="24.4" y="44.4" textLength="12.2" clip-path="url(#terminal-1047007964-line-1)">─</text><text class="terminal-1047007964-r5" x="36.6" y="44.4" textLength="97.6" clip-path="url(#terminal-1047007964-line-1)">&#160;System&#160;</text><text class="terminal-1047007964-r5" x="134.2" y="44.4" textLength="451.4" clip-path="url(#terminal-1047007964-line-1)">─────────────────────────────────────</text><text class="terminal-1047007964-r5" x="585.6" y="44.4" textLength="12.2" clip-path="url(#terminal-1047007964-line-1)">╮</text><text class="terminal-1047007964-r5" x="610" y="44.4" textLength="12.2" clip-path="url(#terminal-1047007964-line-1)">╭</text><text class="terminal-1047007964-r5" x="622.2" y="44.4" textLength="12.2" clip-path="url(#terminal-1047007964-line-1)">─</text><text class="terminal-1047007964-r5" x="634.4" y="44.4" textLength="109.8" clip-path="url(#terminal-1047007964-line-1)">&#160;Storage&#160;</text><text class="terminal-1047007964-r5" x="744.2" y="44.4" textLength="451.4" clip-path="url(#terminal-1047007964-line-1)">─────────────────────────────────────</text><text class="terminal-1047007964-r5" x="1195.6" y="44.4" textLength="12.2" clip-path="url(#terminal-1047007964-line-1)">╮</text><text class="terminal-1047007964-r1" x="1220" y="44.4" textLength="12.2" clip-path="url(#terminal-1047007964-line-1)">
</text><text class="terminal-1047007964-r5" x="12.2" y="68.8" textLength="12.2" clip-path="url(#terminal-1047007964-line-2)">│</text><text class="terminal-1047007964-r6" x="36.6" y="68.8" textLength="207.4" clip-path="url(#terminal-1047007964-line-2)">Waiting&#160;for&#160;data…</text><text class="terminal-1047007964-r5" x="585.6" y="68.8" textLength="12.2" clip-path="url(#terminal-1047007964-line-2)">│</text><text class="terminal-1047007964-r5" x="610" y="68.8" textLength="12.2" clip-path="url(#terminal-1047007964-line-2)">│</text><text class="terminal-1047007964-r6" x="634.4" y="68.8" textLength="207.4" clip-path="url(#terminal-1047007964-line-2)">Waiting&#160;for&#160;data…</text><text class="terminal-1047007964-r5" x="1195.6" y="68.8" textLength="12.2" clip-path="url(#terminal-1047007964-line-2)">│</text><text class="terminal-1047007964-r1" x="1220" y="68.8" textLength="12.2" clip-path="url(#terminal-1047007964-line-2)">
</text><text class="terminal-1047007964-r5" x="12.2" y="93.2" textLength="12.2" clip-path="url(#terminal-1047007964-line-3)">╰</text><text class="terminal-1047007964-r5" x="24.4" y="93.2" textLength="561.2" clip-path="url(#terminal-1047007964-line-3)">──────────────────────────────────────────────</text><text class="terminal-1047007964-r5" x="585.6" y="93.2" textLength="12.2" clip-path="url(#terminal-1047007964-line-3)">╯</text><text class="terminal-1047007964-r5" x="610" y="93.2" textLength="12.2" clip-path="url(#terminal-1047007964-line-3)">╰</text><text class="terminal-1047007964-r5" x="622.2" y="93.2" textLength="573.4" clip-path="url(#terminal-1047007964-line-3)">───────────────────────────────────────────────</text><text class="terminal-1047007964-r5" x="1195.6" y="93.2" textLength="12.2" clip-path="url(#terminal-1047007964-line-3)">╯</text><text class="terminal-1047007964-r1" x="1220" y="93.2" textLength="12.2" clip-path="url(#terminal-1047007964-line-3)">
</text><text class="terminal-1047007964-r1" x="1220" y="117.6" textLength="12.2" clip-path="url(#terminal-1047007964-line-4)">
</text><text class="terminal-1047007964-r1" x="1220" y="142" textLength="12.2" clip-path="url(#terminal-1047007964-line-5)">
</text><text class="terminal-1047007964-r1" x="1220" y="166.4" textLength="12.2" clip-path="url(#terminal-1047007964-line-6)">
</text><text class="terminal-1047007964-r1" x="1220" y="190.8" textLength="12.2" clip-path="url(#terminal-1047007964-line-7)">
</text><text class="terminal-1047007964-r1" x="1220" y="215.2" textLength="12.2" clip-path="url(#terminal-1047007964-line-8)">
</text><text class="terminal-1047007964-r1" x="1220" y="239.6" textLength="12.2" clip-path="url(#terminal-1047007964-line-9)">
</text><text class="terminal-1047007964-r5" x="12.2" y="264" textLength="12.2" clip-path="url(#terminal-1047007964-line-10)">╭</text><text class="terminal-1047007964-r5" x="24.4" y="264" textLength="12.2" clip-path="url(#terminal-1047007964-line-10)">─</text><text class="terminal-1047007964-r5" x="36.6" y="264" textLength="183" clip-path="url(#terminal-1047007964-line-10)">&#160;Top&#160;processes&#160;</text><text class="terminal-1047007964-r5" x="219.6" y="264" textLength="976" clip-path="url(#terminal-1047007964-line-10)">────────────────────────────────────────────────────────────────────────────────</text><text class="terminal-1047007964-r5" x="1195.6" y="264" textLength="12.2" clip-path="url(#terminal-1047007964-line-10)">╮</text><text class="terminal-1047007964-r1" x="1220" y="264" textLength="12.2" clip-path="url(#terminal-1047007964-line-10)">
</text><text class="terminal-1047007964-r5" x="12.2" y="288.4" textLength="12.2" clip-path="url(#terminal-1047007964-line-11)">│</text><text class="terminal-1047007964-r6" x="36.6" y="288.4" textLength="207.4" clip-path="url(#terminal-1047007964-line-11)">Waiting&#160;for&#160;data…</text><text class="terminal-1047007964-r5" x="1195.6" y="288.4" textLength="12.2" clip-path="url(#terminal-1047007964-line-11)">│</text><text class="terminal-1047007964-r1" x="1220" y="288.4" textLength="12.2" clip-path="url(#terminal-1047007964-line-11)">
</text><text class="terminal-1047007964-r5" x="12.2" y="312.8" textLength="12.2" clip-path="url(#terminal-1047007964-line-12)">│</text><text class="terminal-1047007964-r5" x="1195.6" y="312.8" textLength="12.2" clip-path="url(#terminal-1047007964-line-12)">│</text><text class="terminal-1047007964-r1" x="1220" y="312.8" textLength="12.2" clip-path="url(#terminal-1047007964-line-12)">
</text><text class="terminal-1047007964-r5" x="12.2" y="337.2" textLength="12.2" clip-path="url(#terminal-1047007964-line-13)">│</text><text class="terminal-1047007964-r5" x="1195.6" y="337.2" textLength="12.2" clip-path="url(#terminal-1047007964-line-13)">│</text><text class="terminal-1047007964-r1" x="1220" y="337.2" textLength="12.2" clip-path="url(#terminal-1047007964-line-13)">
</text><text class="terminal-1047007964-r5" x="12.2" y="361.6" textLength="12.2" clip-path="url(#terminal-1047007964-line-14)">│</text><text class="terminal-1047007964-r5" x="1195.6" y="361.6" textLength="12.2" clip-path="url(#terminal-1047007964-line-14)">│</text><text class="terminal-1047007964-r1" x="1220" y="361.6" textLength="12.2" clip-path="url(#terminal-1047007964-line-14)">
</text><text class="terminal-1047007964-r5" x="12.2" y="386" textLength="12.2" clip-path="url(#terminal-1047007964-line-15)">╰</text><text class="terminal-1047007964-r5" x="24.4" y="386" textLength="1171.2" clip-path="url(#terminal-1047007964-line-15)">────────────────────────────────────────────────────────────────────────────────────────────────</text><text class="terminal-1047007964-r5" x="1195.6" y="386" textLength="12.2" clip-path="url(#terminal-1047007964-line-15)">╯</text><text class="terminal-1047007964-r1" x="1220" y="386" textLength="12.2" clip-path="url(#terminal-1047007964-line-15)">
</text><text class="terminal-1047007964-r5" x="12.2" y="410.4" textLength="12.2" clip-path="url(#terminal-1047007964-line-16)">╭</text><text class="terminal-1047007964-r5" x="24.4" y="410.4" textLength="12.2" clip-path="url(#terminal-1047007964-line-16)">─</text><text class="terminal-1047007964-r5" x="36.6" y="410.4" textLength="207.4" clip-path="url(#terminal-1047007964-line-16)">&#160;Hardware&#160;health&#160;</text><text class="terminal-1047007964-r5" x="244" y="410.4" textLength="951.6" clip-path="url(#terminal-1047007964-line-16)">──────────────────────────────────────────────────────────────────────────────</text><text class="terminal-1047007964-r5" x="1195.6" y="410.4" textLength="12.2" clip-path="url(#terminal-1047007964-line-16)">╮</text><text class="terminal-1047007964-r1" x="1220" y="410.4" textLength="12.2" clip-path="url(#terminal-1047007964-line-16)">
</text><text class="terminal-1047007964-r5" x="12.2" y="434.8" textLength="12.2" clip-path="url(#terminal-1047007964-line-17)">│</text><text class="terminal-1047007964-r6" x="36.6" y="434.8" textLength="207.4" clip-path="url(#terminal-1047007964-line-17)">Waiting&#160;for&#160;data…</text><text class="terminal-1047007964-r5" x="1195.6" y="434.8" textLength="12.2" clip-path="url(#terminal-1047007964-line-17)">│</text><text class="terminal-1047007964-r1" x="1220" y="434.8" textLength="12.2" clip-path="url(#terminal-1047007964-line-17)">
</text><text class="terminal-1047007964-r5" x="12.2" y="459.2" textLength="12.2" clip-path="url(#terminal-1047007964-line-18)">│</text><text class="terminal-1047007964-r5" x="1195.6" y="459.2" textLength="12.2" clip-path="url(#terminal-1047007964-line-18)">│</text><text class="terminal-1047007964-r1" x="1220" y="459.2" textLength="12.2" clip-path="url(#terminal-1047007964-line-18)">
</text><text class="terminal-1047007964-r5" x="12.2" y="483.6" textLength="12.2" clip-path="url(#terminal-1047007964-line-19)">│</text><text class="terminal-1047007964-r5" x="1195.6" y="483.6" textLength="12.2" clip-path="url(#terminal-1047007964-line-19)">│</text><text class="terminal-1047007964-r1" x="1220" y="483.6" textLength="12.2" clip-path="url(#terminal-1047007964-line-19)">
</text><text class="terminal-1047007964-r5" x="12.2" y="508" textLength="12.2" clip-path="url(#terminal-1047007964-line-20)">│</text><text class="terminal-1047007964-r5" x="1195.6" y="508" textLength="12.2" clip-path="url(#terminal-1047007964-line-20)">│</text><text class="terminal-1047007964-r1" x="1220" y="508" textLength="12.2" clip-path="url(#terminal-1047007964-line-20)">
</text><text class="terminal-1047007964-r5" x="12.2" y="532.4" textLength="12.2" clip-path="url(#terminal-1047007964-line-21)">│</text><text class="terminal-1047007964-r5" x="1195.6" y="532.4" textLength="12.2" clip-path="url(#terminal-1047007964-line-21)">│</text><text class="terminal-1047007964-r1" x="1220" y="532.4" textLength="12.2" clip-path="url(#terminal-1047007964-line-21)">
</text><text class="terminal-1047007964-r5" x="12.2" y="556.8" textLength="12.2" clip-path="url(#terminal-1047007964-line-22)">╰</text><text class="terminal-1047007964-r5" x="24.4" y="556.8" textLength="1171.2" clip-path="url(#terminal-1047007964-line-22)">────────────────────────────────────────────────────────────────────────────────────────────────</text><text class="terminal-1047007964-r5" x="1195.6" y="556.8" textLength="12.2" clip-path="url(#terminal-1047007964-line-22)">╯</text><text class="terminal-1047007964-r1" x="1220" y="556.8" textLength="12.2" clip-path="url(#terminal-1047007964-line-22)">
</text><text class="terminal-1047007964-r5" x="12.2" y="581.2" textLength="12.2" clip-path="url(#terminal-1047007964-line-23)">╭</text><text class="terminal-1047007964-r5" x="24.4" y="581.2" textLength="12.2" clip-path="url(#terminal-1047007964-line-23)">─</text><text class="terminal-1047007964-r5" x="36.6" y="581.2" textLength="122" clip-path="url(#terminal-1047007964-line-23)">&#160;Insights&#160;</text><text class="terminal-1047007964-r5" x="158.6" y="581.2" textLength="1037" clip-path="url(#terminal-1047007964-line-23)">─────────────────────────────────────────────────────────────────────────────────────</text><text class="terminal-1047007964-r5" x="1195.6" y="581.2" textLength="12.2" clip-path="url(#terminal-1047007964-line-23)">╮</text><text class="terminal-1047007964-r1" x="1220" y="581.2" textLength="12.2" clip-path="url(#terminal-1047007964-line-23)">
</text><text class="terminal-1047007964-r5" x="12.2" y="605.6" textLength="12.2" clip-path="url(#terminal-1047007964-line-24)">│</text><text class="terminal-1047007964-r6" x="36.6" y="605.6" textLength="207.4" clip-path="url(#terminal-1047007964-line-24)">Waiting&#160;for&#160;data…</text><text class="terminal-1047007964-r5" x="1195.6" y="605.6" textLength="12.2" clip-path="url(#terminal-1047007964-line-24)">│</text><text class="terminal-1047007964-r1" x="1220" y="605.6" textLength="12.2" clip-path="url(#terminal-1047007964-line-24)">
</text><text class="terminal-1047007964-r5" x="12.2" y="630" textLength="12.2" clip-path="url(#terminal-1047007964-line-25)">│</text><text class="terminal-1047007964-r5" x="1195.6" y="630" textLength="12.2" clip-path="url(#terminal-1047007964-line-25)">│</text><text class="terminal-1047007964-r1" x="1220" y="630" textLength="12.2" clip-path="url(#terminal-1047007964-line-25)">
</text><text class="terminal-1047007964-r5" x="12.2" y="654.4" textLength="12.2" clip-path="url(#terminal-1047007964-line-26)">│</text><text class="terminal-1047007964-r5" x="1195.6" y="654.4" textLength="12.2" clip-path="url(#terminal-1047007964-line-26)">│</text><text class="terminal-1047007964-r1" x="1220" y="654.4" textLength="12.2" clip-path="url(#terminal-1047007964-line-26)">
</text><text class="terminal-1047007964-r5" x="12.2" y="678.8" textLength="12.2" clip-path="url(#terminal-1047007964-line-27)">│</text><text class="terminal-1047007964-r5" x="1195.6" y="678.8" textLength="12.2" clip-path="url(#terminal-1047007964-line-27)">│</text><text class="terminal-1047007964-r1" x="1220" y="678.8" textLength="12.2" clip-path="url(#terminal-1047007964-line-27)">
</text><text class="terminal-1047007964-r5" x="12.2" y="703.2" textLength="12.2" clip-path="url(#terminal-1047007964-line-28)">│</text><text class="terminal-1047007964-r5" x="1195.6" y="703.2" textLength="12.2" clip-path="url(#terminal-1047007964-line-28)">│</text><text class="terminal-1047007964-r1" x="1220" y="703.2" textLength="12.2" clip-path="url(#terminal-1047007964-line-28)">
</text><text class="terminal-1047007964-r5" x="12.2" y="727.6" textLength="12.2" clip-path="url(#terminal-1047007964-line-29)">│</text><text class="terminal-1047007964-r5" x="1195.6" y="727.6" textLength="12.2" clip-path="url(#terminal-1047007964-line-29)">│</text><text class="terminal-1047007964-r1" x="1220" y="727.6" textLength="12.2" clip-path="url(#terminal-1047007964-line-29)">
</text><text class="terminal-1047007964-r5" x="12.2" y="752" textLength="12.2" clip-path="url(#terminal-1047007964-line-30)">╰</text><text class="terminal-1047007964-r5" x="24.4" y="752" textLength="1171.2" clip-path="url(#terminal-1047007964-line-30)">────────────────────────────────────────────────────────────────────────────────────────────────</text><text class="terminal-1047007964-r5" x="1195.6" y="752" textLength="12.2" clip-path="url(#terminal-1047007964-line-30)">╯</text><text class="terminal-1047007964-r1" x="1220" y="752" textLength="12.2" clip-path="url(#terminal-1047007964-line-30)">
</text><text class="terminal-1047007964-r7" x="0" y="776.4" textLength="36.6" clip-path="url(#terminal-1047007964-line-31)">&#160;q&#160;</text><text class="terminal-1047007964-r2" x="36.6" y="776.4" textLength="61" clip-path="url(#terminal-1047007964-line-31)">Quit&#160;</text><text class="terminal-1047007964-r8" x="1073.6" y="776.4" textLength="12.2" clip-path="url(#terminal-1047007964-line-31)">▏</text><text class="terminal-1047007964-r7" x="1085.8" y="776.4" textLength="24.4" clip-path="url(#terminal-1047007964-line-31)">^p</text><text class="terminal-1047007964-r2" x="1110.2" y="776.4" textLength="97.6" clip-path="url(#terminal-1047007964-line-31)">&#160;palette</text>
    </g>
    </g>
</svg>
